ply
format ascii 1.0
comment author: Alexander Kryvonos
comment object: reconstructed scene with color
element vertex 211
property double x
property double y
property double z
property uchar red
property uchar green
property uchar blue
end_header
-0.603502 -2.746489 4.589701 184 176 164
0.705320 -2.561342 3.963190 169 158 145
0.748168 -1.846032 3.859734 175 162 145
-0.401542 -1.479926 4.553036 115 94 70
0.644631 -1.954812 3.939365 128 110 90
-0.185473 -1.569545 4.434132 165 150 127
-0.400459 -1.476952 4.536422 115 94 70
0.695021 -2.614187 4.033292 170 160 146
-0.842234 -2.913148 4.766461 182 170 154
0.188969 -2.712244 4.286158 176 160 140
-1.384436 -2.844934 4.878362 177 167 152
-0.679128 -2.669908 4.639622 107 107 107
-0.356750 -2.574239 4.400984 99 100 99
0.457108 0.279867 3.827676 181 167 146
0.190506 -2.744798 4.331941 177 161 141
0.512485 -2.547045 4.138040 77 73 69
-1.756615 1.186017 2.635256 101 88 90
-1.167735 -2.829447 4.862596 175 164 149
0.714527 -1.779043 3.825833 184 174 157
0.473121 -2.495569 4.025944 96 95 95
0.473277 -0.186063 4.028174 183 169 150
-1.080368 -1.179347 4.638396 155 134 113
-1.180002 -1.416915 4.483484 178 155 138
-1.250656 0.392957 4.249912 183 168 152
0.165343 -1.978277 4.148516 129 110 87
-1.589683 1.133026 2.708786 95 80 81
3.571008 -2.547215 5.653462 174 164 151
0.411137 -0.196366 4.347435 57 53 48
-0.187413 -3.494955 4.567605 174 162 148
0.479093 -0.190996 4.077783 182 168 149
0.854945 -2.476326 3.892140 96 96 93
-0.089381 -3.026948 4.605912 184 172 153
3.675301 -5.360703 6.914634 119 106 89
-0.064152 -1.501769 4.433149 117 94 68
0.607200 -2.702714 4.070008 174 164 147
0.647999 -2.264497 3.841402 118 98 76
-1.527864 -2.363299 4.650262 123 108 98
0.875469 -2.063047 3.882791 176 162 144
-1.560752 -1.927975 4.847072 190 178 166
-0.599582 -2.108617 4.394449 178 163 148
0.851226 -2.457781 3.873549 91 90 87
-0.332632 -1.306224 2.283579 101 102 101
0.286694 -1.895455 4.061849 184 169 149
-1.549467 -1.878085 4.726318 190 180 169
-1.046517 0.225185 4.403790 166 155 141
-0.916148 1.054590 2.494485 86 73 72
-0.346776 -3.729803 4.719950 165 154 137
-1.060318 -0.070243 4.504716 169 153 133
-0.347929 -2.084502 4.295064 175 157 139
-1.322443 -2.361926 4.581508 136 118 100
0.388929 -2.052955 3.993756 175 161 145
-0.249936 -1.590593 4.384956 134 111 86
-0.883862 -3.280005 4.637924 147 132 116
-0.187908 -3.507048 4.585469 174 162 148
-0.100090 -2.071900 4.202673 178 165 150
-1.686509 -1.927041 4.783531 136 121 105
0.635755 -1.689929 3.790037 188 176 159
-1.257913 -2.515301 4.561773 103 100 99
0.014579 -3.494410 4.360163 156 145 135
-0.940227 0.104117 4.690368 136 119 100
0.592761 -2.925130 4.045923 157 147 134
-1.370133 -0.346615 4.448403 123 108 90
-1.542847 1.199568 2.710714 130 116 117
-0.802972 -1.006254 4.859411 154 135 109
-1.062964 -0.072602 4.515862 169 152 132
2.938659 -0.815585 5.197855 128 96 76
-0.797215 -3.154629 4.689270 181 171 154
0.187080 -3.018171 4.729919 178 164 145
3.870916 -3.753673 6.266280 151 137 122
-1.266829 -2.533106 4.594169 103 100 99
0.453107 -2.826389 4.212989 116 100 81
0.327091 -2.939700 4.225216 178 166 148
1.754924 -4.082622 5.177762 156 145 128
3.626096 -3.828267 6.187558 70 51 44
0.648300 -0.362725 3.017638 162 162 164
0.328678 -2.952213 4.244612 178 167 148
-1.286506 -0.175777 4.453901 169 152 133
0.415070 -1.979824 4.055797 127 109 88
-0.551466 1.309389 5.047486 42 41 42
-0.620075 -3.282546 4.724221 174 162 147
1.711646 -3.972493 5.050345 159 147 130
-1.605909 -1.946164 4.898903 192 183 172
0.855479 -2.575152 3.878019 160 151 141
-1.222504 -2.927579 4.825225 122 111 98
-0.959134 0.083372 4.534788 138 121 101
-0.544869 1.293277 4.992534 40 40 41
0.098232 -1.554447 4.299587 153 134 110
-0.365826 -1.659674 2.803708 184 176 164
0.754332 -1.024637 3.595377 186 170 152
3.655429 -5.341818 6.884435 119 106 89
0.355502 -0.350038 4.074118 73 61 50
3.944685 -4.791082 6.301762 164 150 132
0.006710 -1.426719 5.066235 101 81 61
-1.390477 -2.374699 4.493860 178 168 155
-0.423296 -1.920881 3.233685 183 175 163
-0.903243 0.947337 3.182493 89 66 60
-0.705891 -3.241933 5.276036 178 167 151
-1.668817 1.154541 2.725268 178 170 166
-1.728387 -0.939981 4.623471 148 122 100
3.487813 -2.672726 5.843038 81 72 75
0.043612 -1.948884 4.148534 173 156 138
0.531172 -0.152792 3.933340 154 137 113
-0.944681 -0.375650 4.557325 97 80 61
-1.082446 0.994916 3.057961 92 70 66
2.806870 -0.783511 5.271417 156 139 123
-1.675150 1.158388 2.736195 177 169 166
0.424664 1.286342 2.576095 84 69 68
-1.311493 1.308831 3.655219 88 68 65
3.447282 -2.642274 5.795555 82 73 76
0.893585 -1.897559 3.869757 116 103 81
-1.212867 -0.666113 4.341263 163 145 125
0.503154 0.954924 3.261468 140 128 114
-1.174449 1.027703 4.305085 143 126 110
0.524517 0.904797 3.090529 151 138 124
3.598109 -3.794562 6.140716 70 51 44
0.491843 -0.464614 3.708224 115 96 71
-1.740571 -2.158028 4.850339 185 175 164
1.042834 -2.064735 3.865619 179 167 149
-0.683344 -1.073742 4.930577 90 72 54
-1.048612 0.219096 4.414736 166 155 140
0.412334 -0.503071 3.736965 164 151 130
2.929437 -0.438473 5.143861 153 139 123
0.321746 -1.360050 4.013637 171 151 127
0.872568 -1.852868 3.778715 118 104 83
0.299700 -1.577882 3.074844 172 157 141
-0.878107 -3.257976 4.616172 152 138 123
0.407147 -0.612697 4.020258 130 115 91
-0.166118 -0.637627 4.526848 85 58 47
-1.569700 -1.364652 4.718746 194 180 163
2.690036 -0.287047 4.924869 148 136 120
-0.870936 -0.077315 4.731989 160 143 124
0.753388 -1.025501 3.591317 186 171 153
-0.545355 -0.969535 1.897678 133 115 96
0.227468 -2.038724 4.071004 138 123 106
1.234182 -4.329613 7.325622 124 104 83
-0.986926 0.203145 4.660008 142 129 110
1.143478 -2.300209 3.637774 158 147 130
0.620327 -0.363708 3.573162 154 140 118
0.622012 -0.236333 3.529905 174 159 136
0.558931 -0.847737 3.946481 168 148 123
-1.036016 -0.348942 4.211825 110 93 75
0.592803 0.746183 4.263413 145 130 111
-0.375512 -0.905498 1.575685 171 159 144
0.585541 -0.408743 3.021599 66 64 65
-1.579770 -0.003452 4.387421 66 62 57
-1.455743 1.111676 2.856643 92 78 77
0.653241 -0.290669 3.001470 172 173 176
-1.210778 0.954393 4.128569 163 151 136
-1.623081 -0.278774 3.913750 173 171 171
0.491298 0.944721 3.195636 154 140 125
-0.925447 -0.374805 4.462061 104 87 69
-1.582872 -0.095259 4.202467 173 156 138
-0.677279 1.057838 4.558714 117 102 89
-1.030234 -1.757079 3.334151 174 165 151
0.412232 -0.508942 3.737267 167 154 133
0.402419 -0.609986 3.973967 130 114 90
0.977730 0.846962 2.493385 85 73 61
-1.494443 -0.247484 4.268091 181 166 145
0.415693 -0.512615 4.192984 135 120 98
-1.163157 0.982628 3.009877 133 117 102
0.564609 -0.804487 3.931159 166 148 127
-0.701603 -1.081256 2.141871 130 113 98
0.675046 -0.410232 2.953932 66 69 69
-1.483104 -0.247308 4.235160 181 165 145
-1.527565 1.190107 2.681094 118 104 105
-0.941524 -3.125575 4.773388 136 122 106
0.558717 -0.799522 3.890880 169 151 130
0.723733 -0.986532 3.450281 185 170 151
0.701183 -2.817625 3.959816 115 103 91
0.744203 -0.691689 3.437329 169 157 137
-0.915374 -1.558187 2.967334 171 160 147
3.050166 -0.430616 5.365183 155 140 125
0.541636 0.152453 3.654523 190 170 142
0.621341 -0.961179 4.391081 163 143 118
-1.544783 -1.009776 4.557564 189 174 152
0.099032 0.762611 2.995443 46 46 48
1.185427 -2.387602 3.771434 159 148 131
0.538973 -2.380887 3.607166 170 159 143
-0.936715 0.855916 2.650741 86 66 61
-0.460316 0.177607 0.802921 160 118 96
-0.146365 0.542091 1.282077 113 99 98
-0.941204 -0.076474 5.112383 150 133 114
0.903824 -0.836742 4.174130 170 159 138
-0.457708 0.177620 0.798276 154 116 99
0.577862 0.592852 4.179074 174 158 140
0.696498 -2.313127 3.798940 162 152 137
0.595692 -0.412474 3.073474 65 63 62
0.378962 0.876204 1.955540 109 92 89
3.912136 -4.650652 6.729185 158 145 130
-1.228506 -0.008950 1.845793 173 155 137
0.708317 1.121967 3.634853 170 154 137
0.803808 -2.672040 4.385104 156 148 131
-1.498860 1.204643 3.285856 152 139 131
0.509438 0.642087 2.825457 181 167 152
-0.817134 -0.684009 4.555907 149 136 118
-0.347235 0.384934 0.958222 108 94 95
-1.806418 -2.236999 5.037306 184 175 164
-0.731492 -0.565125 4.548942 106 89 69
-1.469371 1.473614 4.082131 93 71 67
-0.811390 0.362654 4.415127 165 153 137
0.421094 -2.635838 4.212848 160 152 140
0.556857 0.573407 4.028742 176 160 142
-0.804752 0.359454 4.379086 165 153 137
0.742086 -0.365405 3.450458 170 164 155
-0.931019 0.863581 2.818517 147 131 121
-1.456319 1.113173 3.887424 132 115 99
-1.586788 0.016012 4.405430 66 62 58
-0.373261 -0.016533 1.033826 64 60 57
-1.842273 0.027784 5.110778 123 114 102
-0.365766 -0.014903 1.013524 116 108 98
-0.405340 -0.015758 1.123164 128 118 106
